<svg width="38" height="37" viewBox="0 0 38 37" fill="none" xmlns="http://www.w3.org/2000/svg">
<path d="M34.0001 11.8333C34.8841 11.8333 35.732 12.1845 36.3571 12.8096C36.9822 13.4348 37.3334 14.2826 37.3334 15.1667V21.8333C37.3334 22.7174 36.9822 23.5652 36.3571 24.1904C35.732 24.8155 34.8841 25.1667 34.0001 25.1667H32.2301C31.8238 28.3888 30.2555 31.352 27.8197 33.5C25.3838 35.648 22.2478 36.8333 19.0001 36.8333V33.5C21.6522 33.5 24.1958 32.4464 26.0712 30.5711C27.9465 28.6957 29.0001 26.1522 29.0001 23.5V13.5C29.0001 10.8478 27.9465 8.30429 26.0712 6.42893C24.1958 4.55357 21.6522 3.5 19.0001 3.5C16.3479 3.5 13.8044 4.55357 11.929 6.42893C10.0537 8.30429 9.00008 10.8478 9.00008 13.5V25.1667H4.00008C3.11603 25.1667 2.26818 24.8155 1.64306 24.1904C1.01794 23.5652 0.666748 22.7174 0.666748 21.8333V15.1667C0.666748 14.2826 1.01794 13.4348 1.64306 12.8096C2.26818 12.1845 3.11603 11.8333 4.00008 11.8333H5.77008C6.1768 8.61149 7.74521 5.64878 10.181 3.50112C12.6169 1.35346 15.7527 0.168457 19.0001 0.168457C22.2475 0.168457 25.3833 1.35346 27.8191 3.50112C30.2549 5.64878 31.8234 8.61149 32.2301 11.8333H34.0001ZM11.9334 24.8083L13.7001 21.9817C15.2885 22.9767 17.1257 23.503 19.0001 23.5C20.8745 23.503 22.7116 22.9767 24.3001 21.9817L26.0667 24.8083C23.9488 26.1352 21.4993 26.8372 19.0001 26.8333C16.5008 26.8373 14.0513 26.1353 11.9334 24.8083Z" fill="#8AB9F6"/>
</svg>
