<svg xmlns="http://www.w3.org/2000/svg" width="50" height="50" viewBox="0 0 50 50" fill="none">
<path d="M36.4545 20.9082C37.1296 20.9082 37.7771 21.1764 38.2545 21.6537C38.7318 22.1311 39 22.7786 39 23.4537V28.5449C39 29.22 38.7318 29.8675 38.2545 30.3449C37.7771 30.8223 37.1296 31.0905 36.4545 31.0905H35.9847C35.4808 31.0905 35.0609 31.4669 34.9549 31.9596C34.4983 34.0807 33.3738 36.0092 31.735 37.4544C30.1259 38.8734 28.1168 39.7422 25.9985 39.9509C25.4488 40.0051 25 39.5523 25 39V38.4544C25 37.9021 25.4496 37.4612 25.9972 37.3891C27.6545 37.1708 29.2047 36.4127 30.3997 35.2177C31.8318 33.7855 32.6364 31.8431 32.6364 29.8177V22.1809C32.6364 20.1556 31.8318 18.2131 30.3997 16.781C28.9676 15.3488 27.0253 14.5442 25 14.5442C22.9747 14.5442 21.0324 15.3488 19.6003 16.781C18.1682 18.2131 17.3636 20.1556 17.3636 22.1809V30.0905C17.3636 30.6428 16.9159 31.0905 16.3636 31.0905H13.5455C12.8704 31.0905 12.2229 30.8223 11.7455 30.3449C11.2682 29.8675 11 29.22 11 28.5449V23.4537C11 22.7786 11.2682 22.1311 11.7455 21.6537C12.2229 21.1764 12.8704 20.9082 13.5455 20.9082H14.0154C14.5192 20.9082 14.9391 20.5318 15.0452 20.0392C15.502 17.9182 16.6266 15.9901 18.2655 14.5451C20.1255 12.905 22.5202 12 25 12C27.4798 12 29.8745 12.905 31.7345 14.5451C33.3734 15.9901 34.498 17.9182 34.9548 20.0392C35.0609 20.5318 35.4808 20.9082 35.9846 20.9082H36.4545ZM20.4748 31.3046C19.9807 31.0591 19.8405 30.4377 20.133 29.9698L20.4222 29.5071C20.7151 29.0384 21.3307 28.903 21.8336 29.1323C22.824 29.5841 23.9037 29.8195 25 29.8177C26.0963 29.8195 27.176 29.5841 28.1664 29.1323C28.6693 28.903 29.2849 29.0384 29.5778 29.5071L29.867 29.9698C30.1594 30.4377 30.0193 31.0591 29.5252 31.3046C28.1232 32.0013 26.5745 32.3657 25 32.3633C23.4255 32.3657 21.8768 32.0013 20.4748 31.3046Z" fill="#ffffff"/>
</svg>