<svg xmlns="http://www.w3.org/2000/svg" width="40" height="41" viewBox="0 0 40 41" fill="none">
<path d="M18.5833 6.1667L12.3833 16.3C11.7 17.4 12.5 18.8334 13.8 18.8334H26.1833C27.4833 18.8334 28.2833 17.4 27.6 16.3L21.4166 6.1667C20.7666 5.10003 19.2333 5.10003 18.5833 6.1667Z" fill="#88b8f6"/>
<path d="M29.1667 37.1665C33.3089 37.1665 36.6667 33.8086 36.6667 29.6665C36.6667 25.5244 33.3089 22.1665 29.1667 22.1665C25.0246 22.1665 21.6667 25.5244 21.6667 29.6665C21.6667 33.8086 25.0246 37.1665 29.1667 37.1665Z" fill="#88b8f6"/>
<path d="M6.66667 36.3333H16.6667C17.5833 36.3333 18.3333 35.5833 18.3333 34.6667V24.6667C18.3333 23.75 17.5833 23 16.6667 23H6.66667C5.75 23 5 23.75 5 24.6667V34.6667C5 35.5833 5.75 36.3333 6.66667 36.3333Z" fill="#88b8f6"/>
</svg>